<svg xmlns="http://www.w3.org/2000/svg" id="Capa_1" x="0" y="0" enable-background="new 0 0 513.196 513.196" version="1.1" viewBox="0 0 513.196 513.196" xml:space="preserve"><g><path d="M256.052,448.096c42.429,0,80.86-13.015,114.031-37.638c32.519-24.139,56.183-57.189,68.436-95.579 c1.259-3.946-0.918-8.166-4.865-9.425c-3.944-1.258-8.166,0.919-9.425,4.865c-11.291,35.378-33.106,65.84-63.086,88.095 c-30.566,22.689-66.906,34.682-105.091,34.682c-46.08,0-89.683-17.65-122.776-49.699c-2.976-2.882-7.724-2.805-10.605,0.17 c-2.881,2.976-2.806,7.724,0.17,10.605C158.747,428.945,206.056,448.096,256.052,448.096z"/><path d="M437.532,288.034c0.329,0.043,0.655,0.064,0.978,0.064c3.711,0,6.936-2.753,7.428-6.532 c1.071-8.221,1.614-16.622,1.614-24.97c0-4.142-3.358-7.5-7.5-7.5s-7.5,3.358-7.5,7.5c0,7.703-0.501,15.452-1.488,23.033 C430.528,283.736,433.424,287.499,437.532,288.034z"/><path d="M87.222,204.964c10.808-35.387,33.14-67.188,62.881-89.545c30.741-23.109,67.377-35.323,105.949-35.323 c48.217,0,93.249,19.08,126.8,53.724c2.881,2.976,7.629,3.051,10.605,0.17c2.976-2.882,3.051-7.63,0.17-10.605 c-36.402-37.588-85.261-58.289-137.576-58.289c-41.848,0-81.602,13.255-114.962,38.333c-32.26,24.25-56.486,58.753-68.214,97.153 c-1.21,3.961,1.021,8.154,4.982,9.364c0.73,0.223,1.468,0.329,2.193,0.329C83.263,210.275,86.235,208.195,87.222,204.964z"/><path d="M74.571,225.158c-4.108-0.535-7.871,2.361-8.405,6.469c-1.071,8.222-1.614,16.623-1.614,24.969c0,4.142,3.358,7.5,7.5,7.5 s7.5-3.358,7.5-7.5c0-7.701,0.5-15.45,1.488-23.033C81.575,229.456,78.679,225.692,74.571,225.158z"/><path d="M224.042,50.451c0.366,0,0.738-0.027,1.111-0.083c10.156-1.508,20.552-2.273,30.899-2.273c4.142,0,7.5-3.358,7.5-7.5 s-3.358-7.5-7.5-7.5c-11.082,0-22.22,0.819-33.103,2.436c-4.097,0.608-6.926,4.423-6.317,8.52 C217.185,47.776,220.386,50.451,224.042,50.451z"/><path d="M78.802,120.436c-30.257,39.332-46.25,86.415-46.25,136.16c0,60.101,23.517,116.494,66.219,158.792 c1.462,1.448,3.37,2.171,5.277,2.171c1.932,0,3.862-0.741,5.329-2.222c2.915-2.942,2.892-7.691-0.051-10.606 c-39.836-39.459-61.774-92.068-61.774-148.135c0-46.408,14.917-90.328,43.139-127.014c27.339-35.538,66.033-61.736,108.954-73.768 c3.988-1.118,6.315-5.258,5.197-9.246c-1.118-3.988-5.255-6.313-9.246-5.197C149.579,54.271,108.101,82.35,78.802,120.436z"/><path d="M286.952,462.823c-10.155,1.508-20.551,2.272-30.9,2.272c-4.142,0-7.5,3.358-7.5,7.5s3.358,7.5,7.5,7.5 c11.084,0,22.222-0.819,33.104-2.436c4.097-0.608,6.926-4.423,6.317-8.52C294.864,465.043,291.049,462.213,286.952,462.823z"/><path d="M435.072,390.422c29.099-38.865,44.479-85.141,44.479-133.827c0-60.092-23.512-116.48-66.204-158.777 c-2.943-2.915-7.691-2.894-10.607,0.05c-2.915,2.942-2.893,7.691,0.05,10.606c39.827,39.458,61.761,92.062,61.761,148.121 c0,45.419-14.346,88.587-41.487,124.837c-26.251,35.062-63.624,61.47-105.234,74.36c-3.957,1.226-6.17,5.427-4.945,9.383 c0.997,3.218,3.961,5.283,7.162,5.283c0.735,0,1.483-0.109,2.222-0.338C366.878,456.302,406.939,427.998,435.072,390.422z"/><path d="M15.569,256.596c0-4.142-3.358-7.5-7.5-7.5s-7.5,3.358-7.5,7.5c0,53.602,16.418,104.909,47.479,148.376 c1.464,2.049,3.769,3.14,6.108,3.14c1.509,0,3.033-0.454,4.354-1.398c3.37-2.408,4.15-7.092,1.742-10.462 C31.021,355.344,15.569,307.051,15.569,256.596z"/><path d="M108.692,446.655c-11.155-8.662-21.615-18.368-31.088-28.848c-2.777-3.073-7.521-3.312-10.593-0.535 c-3.073,2.778-3.312,7.521-0.535,10.593c10.061,11.13,21.169,21.438,33.017,30.637c1.368,1.062,2.987,1.577,4.594,1.577 c2.237,0,4.451-0.997,5.929-2.901C112.557,453.907,111.964,449.196,108.692,446.655z"/><path d="M256.052,497.078c-43.857,0-86.774-11.916-124.112-34.458c-3.546-2.143-8.156-1.002-10.297,2.544 c-2.141,3.546-1.002,8.156,2.544,10.297c39.677,23.956,85.275,36.618,131.865,36.618c4.142,0,7.5-3.357,7.5-7.5 S260.194,497.078,256.052,497.078z"/><path d="M475.162,157.34c14.182,31.255,21.372,64.649,21.372,99.255c0,4.142,3.358,7.5,7.5,7.5s7.5-3.358,7.5-7.5 c0-36.759-7.642-72.238-22.712-105.453c-14.559-32.086-35.245-60.384-61.485-84.109c-3.073-2.778-7.815-2.54-10.593,0.534 c-2.778,3.072-2.539,7.815,0.534,10.593C441.983,100.498,461.458,127.138,475.162,157.34z"/><path d="M364.644,41.968c10.765,5.458,21.213,11.791,31.057,18.824c1.322,0.944,2.845,1.398,4.354,1.398 c2.34,0,4.645-1.091,6.109-3.14c2.408-3.371,1.628-8.055-1.742-10.463c-10.457-7.471-21.558-14.2-32.994-19.998 c-3.693-1.873-8.208-0.397-10.081,3.298C359.473,35.581,360.949,40.095,364.644,41.968z"/><path d="M256.052,16.113c26.569,0,52.67,4.302,77.581,12.787c0.801,0.273,1.617,0.402,2.418,0.402c3.122,0,6.037-1.964,7.099-5.084 c1.335-3.921-0.761-8.182-4.682-9.518c-26.47-9.016-54.199-13.587-82.417-13.587c-4.142,0-7.5,3.358-7.5,7.5 S251.91,16.113,256.052,16.113z"/><path d="M33.551,86.427c1.389,1.124,3.056,1.67,4.713,1.67c2.186,0,4.353-0.951,5.835-2.783 c24.068-29.745,53.468-53.682,87.383-71.145c3.683-1.896,5.13-6.419,3.234-10.102c-1.896-3.681-6.415-5.13-10.102-3.234 C88.837,19.255,57.824,44.504,32.438,75.878C29.833,79.099,30.331,83.821,33.551,86.427z"/><path d="M4.559,133.132c1.113,0.585,2.307,0.863,3.483,0.863c2.697,0,5.303-1.459,6.645-4.012 c3.813-7.253,8.008-14.424,12.47-21.314c2.252-3.477,1.259-8.12-2.218-10.372c-3.478-2.252-8.121-1.259-10.372,2.218 c-4.708,7.269-9.134,14.835-13.158,22.488C-0.517,126.67,0.893,131.205,4.559,133.132z"/><path d="M478.551,426.767c-3.22-2.604-7.942-2.107-10.548,1.113c-24.069,29.747-53.471,53.684-87.388,71.147 c-3.683,1.896-5.131,6.419-3.235,10.102c1.331,2.584,3.955,4.068,6.674,4.068c1.155,0,2.329-0.269,3.427-0.834 c35.781-18.422,66.795-43.672,92.183-75.047C482.269,434.095,481.771,429.372,478.551,426.767z"/><path d="M508.581,377.929c-3.683-1.896-8.206-0.447-10.102,3.234c-4.103,7.967-8.655,15.825-13.532,23.355 c-2.252,3.477-1.259,8.12,2.218,10.372c1.26,0.816,2.673,1.206,4.07,1.206c2.458,0,4.866-1.207,6.302-3.424 c5.146-7.944,9.949-16.235,14.278-24.642C513.711,384.348,512.264,379.825,508.581,377.929z"/><path d="M256.052,416.096c87.949,0,159.5-71.551,159.5-159.5s-71.551-159.5-159.5-159.5s-159.5,71.551-159.5,159.5 S168.103,416.096,256.052,416.096z M256.052,112.096c79.678,0,144.5,64.822,144.5,144.5s-64.822,144.5-144.5,144.5 s-144.5-64.822-144.5-144.5S176.374,112.096,256.052,112.096z"/><path d="M56.043,117.46c2.306,0,4.581-1.06,6.051-3.061c14.544-19.804,31.959-37.219,51.761-51.761 c3.338-2.452,4.057-7.146,1.605-10.484c-2.451-3.337-7.145-4.056-10.484-1.605c-21.03,15.445-39.525,33.94-54.972,54.972 c-2.452,3.338-1.733,8.033,1.605,10.484C52.946,116.987,54.501,117.46,56.043,117.46z"/><path d="M450.009,398.794c-15.18,20.669-33.456,38.707-54.317,53.612c-3.371,2.408-4.15,7.092-1.743,10.462 c1.464,2.049,3.769,3.141,6.109,3.141c1.509,0,3.032-0.454,4.354-1.398c22.157-15.83,41.565-34.986,57.688-56.938 c2.452-3.338,1.733-8.032-1.605-10.484C457.155,394.737,452.461,395.456,450.009,398.794z"/></g></svg>